<svg width="24" height="24" viewBox="0 0 24 24" fill="none" xmlns="http://www.w3.org/2000/svg">
<path d="M4.69274 4.47772L5.94274 4.47796L4.69274 4.47772C4.69247 5.91839 5.86028 7.0862 7.30095 7.08592L13.2274 7.08478L2.63117 17.681C1.6127 18.6994 1.6127 20.3507 2.63117 21.3692C3.64965 22.3877 5.30092 22.3877 6.31939 21.3692L16.9156 10.773L16.9144 16.6994C16.9141 18.1401 18.082 19.3079 19.5226 19.3076C20.9629 19.3073 22.1306 18.1397 22.1309 16.6994L22.1332 4.47531C22.1335 3.03463 20.9657 1.86682 19.525 1.8671L7.30099 1.86947C5.8607 1.86975 4.69302 3.03742 4.69274 4.47772Z" stroke="#898989" stroke-width="2.5"/>
</svg>
