<svg width="20" height="21" viewBox="0 0 20 21" fill="none" xmlns="http://www.w3.org/2000/svg">
<circle cx="10" cy="11" r="9" stroke="#676767" stroke-width="2"/>
<path d="M9.08967 15V8.45455H10.905V15H9.08967ZM10.0016 7.6108C9.73171 7.6108 9.50018 7.52131 9.307 7.34233C9.11665 7.16051 9.02148 6.94318 9.02148 6.69034C9.02148 6.44034 9.11665 6.22585 9.307 6.04688C9.50018 5.86506 9.73171 5.77415 10.0016 5.77415C10.2715 5.77415 10.5016 5.86506 10.6919 6.04688C10.8851 6.22585 10.9817 6.44034 10.9817 6.69034C10.9817 6.94318 10.8851 7.16051 10.6919 7.34233C10.5016 7.52131 10.2715 7.6108 10.0016 7.6108Z" fill="#676767"/>
</svg>
