<svg width="1440" height="900" viewBox="0 0 1440 900" fill="none" xmlns="http://www.w3.org/2000/svg">
<rect width="1440" height="900" fill="url(#paint0_linear_126_65)"/>
<rect x="70.038" y="186.066" width="300" height="38" rx="19" transform="rotate(-15 70.038 186.066)" stroke="#4B4A7F" stroke-width="20"/>
<rect x="-258.377" y="274.065" width="300" height="38" rx="19" transform="rotate(-15 -258.377 274.065)" stroke="#4B4A7F" stroke-width="20"/>
<rect x="398.453" y="98.0676" width="414" height="38" rx="19" transform="rotate(-15 398.453 98.0676)" stroke="#4B4A7F" stroke-width="20"/>
<rect x="398.453" y="98.0676" width="414" height="38" rx="19" transform="rotate(-15 398.453 98.0676)" fill="#4B4A7F" stroke="#4B4A7F" stroke-width="20"/>
<rect x="836.983" y="-19.4362" width="515" height="38" rx="19" transform="rotate(-15 836.983 -19.4362)" stroke="#4B4A7F" stroke-width="20"/>
<rect x="-94.7836" y="308.911" width="605" height="38" rx="19" transform="rotate(-15 -94.7836 308.911)" stroke="#4B4A7F" stroke-width="20"/>
<rect x="-75.1134" y="382.321" width="378" height="38" rx="19" transform="rotate(-15 -75.1134 382.321)" stroke="#4B4A7F" stroke-width="20"/>
<rect x="-55.4431" y="455.732" width="265" height="38" rx="19" transform="rotate(-15 -55.4431 455.732)" stroke="#4B4A7F" stroke-width="20"/>
<rect x="-35.7728" y="529.142" width="378" height="38" rx="19" transform="rotate(-15 -35.7728 529.142)" fill="#4B4A7F" stroke="#4B4A7F" stroke-width="20"/>
<rect x="-16.1026" y="602.552" width="605" height="38" rx="19" transform="rotate(-15 -16.1026 602.552)" fill="#4B4A7F" stroke="#4B4A7F" stroke-width="20"/>
<rect x="-46.6605" y="689.421" width="317" height="38" rx="19" transform="rotate(-15 -46.6605 689.421)" stroke="#4B4A7F" stroke-width="20"/>
<rect x="23.2379" y="749.373" width="265" height="38" rx="19" transform="rotate(-15 23.2379 749.373)" stroke="#4B4A7F" stroke-width="20"/>
<rect x="227.4" y="773.349" width="414" height="38" rx="19" transform="rotate(-15 227.4 773.349)" stroke="#4B4A7F" stroke-width="20"/>
<rect x="62.5784" y="896.194" width="378" height="38" rx="19" transform="rotate(-15 62.5784 896.194)" stroke="#4B4A7F" stroke-width="20"/>
<rect x="82.2487" y="969.604" width="491" height="38" rx="19" transform="rotate(-15 82.2487 969.604)" stroke="#4B4A7F" stroke-width="20"/>
<rect x="637.388" y="112.726" width="300" height="38" rx="19" transform="rotate(-15 637.388 112.726)" stroke="#4B4A7F" stroke-width="20"/>
<rect x="328.644" y="274.135" width="187" height="38" rx="19" transform="rotate(-15 328.644 274.135)" stroke="#4B4A7F" stroke-width="20"/>
<rect x="546.943" y="215.642" width="187" height="38" rx="19" transform="rotate(-15 546.943 215.642)" stroke="#4B4A7F" stroke-width="20"/>
<rect x="785.878" y="230.3" width="74" height="38" rx="19" transform="rotate(-15 785.878 230.3)" stroke="#4B4A7F" stroke-width="20"/>
<rect x="935.334" y="347.616" width="74" height="38" rx="19" transform="rotate(-15 935.334 347.616)" stroke="#4B4A7F" stroke-width="20"/>
<rect x="-7.32006" y="836.242" width="203" height="38" rx="19" transform="rotate(-15 -7.32006 836.242)" stroke="#4B4A7F" stroke-width="20"/>
<rect x="239.164" y="376.792" width="526" height="38" rx="19" transform="rotate(-15 239.164 376.792)" stroke="#4B4A7F" stroke-width="20"/>
<rect x="477.134" y="391.709" width="414" height="38" rx="19" transform="rotate(-15 477.134 391.709)" stroke="#4B4A7F" stroke-width="20"/>
<rect x="606.92" y="435.614" width="300" height="38" rx="19" transform="rotate(-15 606.92 435.614)" stroke="#4B4A7F" stroke-width="20"/>
<rect x="844.889" y="450.531" width="187" height="38" rx="19" transform="rotate(-15 844.889 450.531)" stroke="#4B4A7F" stroke-width="20"/>
<rect x="1032.72" y="714.926" width="187" height="38" rx="19" transform="rotate(-15 1032.72 714.926)" stroke="#4B4A7F" stroke-width="20"/>
<rect x="595.155" y="832.171" width="74" height="38" rx="19" transform="rotate(-15 595.155 832.171)" stroke="#4B4A7F" stroke-width="20"/>
<rect x="297.209" y="597.282" width="187" height="38" rx="19" transform="rotate(-15 297.209 597.282)" fill="#4B4A7F" stroke="#4B4A7F" stroke-width="20"/>
<rect x="516.474" y="538.53" width="300" height="38" rx="19" transform="rotate(-15 516.474 538.53)" stroke="#4B4A7F" stroke-width="20"/>
<rect x="317.845" y="670.433" width="753" height="38" rx="19" transform="rotate(-15 317.845 670.433)" stroke="#4B4A7F" stroke-width="20"/>
<rect x="665.93" y="655.845" width="300" height="38" rx="19" transform="rotate(-15 665.93 655.845)" stroke="#4B4A7F" stroke-width="20"/>
<rect x="575.485" y="758.761" width="414" height="38" rx="19" transform="rotate(-15 575.485 758.761)" stroke="#4B4A7F" stroke-width="20"/>
<rect x="705.271" y="802.666" width="300" height="38" rx="19" transform="rotate(-15 705.271 802.666)" fill="#4B4A7F" stroke="#4B4A7F" stroke-width="20"/>
<rect x="614.826" y="905.582" width="527" height="38" rx="19" transform="rotate(-15 614.826 905.582)" fill="#4B4A7F" stroke="#4B4A7F" stroke-width="20"/>
<rect x="744.611" y="949.487" width="526" height="38" rx="19" transform="rotate(-15 744.611 949.487)" fill="#4B4A7F" stroke="#4B4A7F" stroke-width="20"/>
<rect x="1291.33" y="802.995" width="526" height="38" rx="19" transform="rotate(-15 1291.33 802.995)" fill="#4B4A7F" stroke="#4B4A7F" stroke-width="20"/>
<rect x="965.803" y="24.7276" width="352" height="38" rx="19" transform="rotate(-15 965.803 24.7276)" stroke="#4B4A7F" stroke-width="20"/>
<rect x="766.208" y="156.89" width="629" height="38" rx="19" transform="rotate(-15 766.208 156.89)" stroke="#4B4A7F" stroke-width="20"/>
<rect x="1224.41" y="112.796" width="125" height="38" rx="19" transform="rotate(-15 1224.41 112.796)" stroke="#4B4A7F" stroke-width="20"/>
<rect x="895.994" y="200.795" width="300" height="38" rx="19" transform="rotate(-15 895.994 200.795)" stroke="#4B4A7F" stroke-width="20"/>
<rect x="915.664" y="274.205" width="515" height="38" rx="19" transform="rotate(-15 915.664 274.205)" fill="#4B4A7F" stroke="#4B4A7F" stroke-width="20"/>
<rect x="1044.48" y="318.369" width="486" height="38" rx="19" transform="rotate(-15 1044.48 318.369)" fill="#4B4A7F" stroke="#4B4A7F" stroke-width="20"/>
<rect x="1173.3" y="362.533" width="239" height="38" rx="19" transform="rotate(-15 1173.3 362.533)" stroke="#4B4A7F" stroke-width="20"/>
<rect x="1083.82" y="465.19" width="486" height="38" rx="19" transform="rotate(-15 1083.82 465.19)" stroke="#4B4A7F" stroke-width="20"/>
<rect x="994.345" y="567.847" width="515" height="38" rx="19" transform="rotate(-15 994.345 567.847)" stroke="#4B4A7F" stroke-width="20"/>
<rect x="1103.85" y="617.187" width="372" height="38" rx="19" transform="rotate(-15 1103.85 617.187)" stroke="#4B4A7F" stroke-width="20"/>
<rect x="1251.98" y="656.174" width="289" height="38" rx="19" transform="rotate(-15 1251.98 656.174)" fill="#4B4A7F" stroke="#4B4A7F" stroke-width="20"/>
<rect x="1162.51" y="758.831" width="486" height="38" rx="19" transform="rotate(-15 1162.51 758.831)" fill="#4B4A7F" stroke="#4B4A7F" stroke-width="20"/>
<rect x="-130.778" y="159.123" width="1467" height="38" rx="19" transform="rotate(-15 -130.778 159.123)" stroke="#4B4A7F" stroke-width="20"/>
<rect x="1201.85" y="905.652" width="639" height="38" rx="19" transform="rotate(-15 1201.85 905.652)" fill="#4B4A7F" stroke="#4B4A7F" stroke-width="20"/>
<rect x="-263.013" y="113.804" width="716" height="38" rx="19" transform="rotate(-15 -263.013 113.804)" fill="#4B4A7F" stroke="#4B4A7F" stroke-width="20"/>
<defs>
<linearGradient id="paint0_linear_126_65" x1="720" y1="0" x2="720" y2="900" gradientUnits="userSpaceOnUse">
<stop stop-color="#161634"/>
<stop offset="1" stop-color="#4B4A7F"/>
</linearGradient>
</defs>
</svg>
