<svg width="116" height="116" viewBox="0 0 116 116" fill="none" xmlns="http://www.w3.org/2000/svg">
<path d="M7.55425 28.3614L49.6414 7.3145C54.9033 4.68314 61.0967 4.68315 66.3586 7.31451L108.446 28.3614C111.275 29.7762 111.425 33.7584 108.71 35.3821L67.593 59.9758C61.6856 63.5092 54.3144 63.5092 48.407 59.9758L25.3317 46.1737L21.9541 47.1871V50.3766L45.6661 64.5596C53.2614 69.1026 62.7386 69.1026 70.3339 64.5596L111.451 39.9659C117.785 36.1773 117.435 26.8854 110.834 23.5843L68.7468 2.53738C61.9815 -0.845792 54.0185 -0.845796 47.2532 2.53738L5.16607 23.5843C-1.43508 26.8854 -1.78516 36.1773 4.54887 39.9659L5.94426 40.8006C5.9653 40.4052 6.01553 40.0148 6.09325 39.6325C6.33274 38.4504 6.83054 37.3655 7.51967 36.4406C7.67836 36.2274 7.84809 36.0215 8.02837 35.8239L7.28974 35.3821C4.57515 33.7584 4.72519 29.7762 7.55425 28.3614Z" fill="white"/>
<path fill-rule="evenodd" clip-rule="evenodd" d="M16.6139 43.2132L19.1234 42.4603L47.0627 34.0771C49.2673 36.6014 53.3402 38.5557 58 38.5557C65.0045 38.5557 70.6828 34.1398 70.6828 30.0101C70.6828 25.8805 65.0045 22.5328 58 22.5328C51.5827 22.5328 46.2786 25.3427 45.4343 28.9895L13.2341 38.6512C13.0407 38.7044 12.8561 38.7788 12.6829 38.8718C12.33 39.0603 12.0316 39.3223 11.8016 39.6321C11.7584 39.6901 11.7175 39.7499 11.679 39.8113C11.525 40.0574 11.4099 40.3304 11.3425 40.6216L19.1234 42.4603L11.3267 40.6948C11.2954 40.8482 11.2775 41.0053 11.2738 41.1643C11.2729 41.2048 11.2729 41.2455 11.2738 41.2863L11.2738 74.889C12.1347 74.7045 13.028 74.6074 13.9439 74.6074C14.8598 74.6074 15.7531 74.7045 16.6139 74.889L16.6139 43.2132ZM64.2563 29.3239C64.8226 29.6578 65.1131 29.9254 65.2566 30.0933C65.1191 30.3452 64.7696 30.8462 63.8888 31.468C62.5059 32.4442 60.4135 33.2147 58 33.2147C55.5865 33.2147 53.4941 32.4442 52.1113 31.468C51.2304 30.8462 50.8809 30.3452 50.7435 30.0933C50.8869 29.9254 51.1774 29.6578 51.7437 29.3239C53.0831 28.5343 55.2828 27.8738 58 27.8738C60.7172 27.8738 62.9169 28.5343 64.2563 29.3239ZM50.6145 30.2885C50.6145 30.2885 50.6169 30.276 50.6293 30.2528C50.622 30.2773 50.6145 30.2885 50.6145 30.2885ZM65.3707 30.2528C65.3831 30.276 65.3855 30.2885 65.3855 30.2885C65.3855 30.2885 65.378 30.2773 65.3707 30.2528Z" fill="white"/>
<path fill-rule="evenodd" clip-rule="evenodd" d="M21.9565 70.6016C21.9548 70.5627 21.9539 70.5236 21.9539 70.4843V56.7048C21.9539 56.67 21.9546 56.6353 21.9559 56.6009L27.2941 59.7938V61.2549C27.2941 64.4091 29.801 67.727 35.5294 70.4022C41.123 73.0144 49.057 74.6074 58 74.6074C66.943 74.6074 74.877 73.0144 80.4706 70.4022C86.1802 67.7358 88.6892 64.4309 88.7057 61.2861V59.7939L94.0439 56.601C94.0452 56.6354 94.0458 56.67 94.0458 56.7048V70.4843C94.0458 70.5086 94.0455 70.5328 94.0449 70.5569L94.0433 70.6016H94.0459C94.0459 77.5008 89.3674 82.9057 82.8776 86.4416C76.3533 89.9962 67.5439 91.9656 58 91.9656C48.4561 91.9656 39.6467 89.9962 33.1225 86.4416C26.6326 82.9057 21.9541 77.5008 21.9541 70.6016H21.9565ZM58 86.6246C49.1109 86.6246 41.2324 84.778 35.677 81.7513C30.5197 78.9415 27.7432 75.3687 27.3444 71.5637C29.0574 72.9922 31.0814 74.2195 33.2701 75.2416C39.7561 78.2705 48.51 79.9484 58 79.9484C67.49 79.9484 76.2439 78.2705 82.7299 75.2416C84.9186 74.2195 86.9427 72.9922 88.6556 71.5637C88.2568 75.3687 85.4803 78.9415 80.323 81.7513C74.7676 84.778 66.8891 86.6246 58 86.6246Z" fill="white"/>
<path fill-rule="evenodd" clip-rule="evenodd" d="M18.1745 93.2954C20.0571 91.9657 21.2866 89.7726 21.2866 87.2922C21.2866 84.1784 19.349 81.5173 16.6139 80.449C16.5657 80.4302 16.5173 80.4118 16.4686 80.394C15.6813 80.1057 14.831 79.9484 13.9439 79.9484C13.0019 79.9484 12.1014 80.1258 11.2738 80.449C8.53877 81.5173 6.60122 84.1784 6.60122 87.2922C6.60122 89.7726 7.83068 91.9657 9.71334 93.2954C8.02688 94.4732 6.84688 96.3411 6.59764 98.5205L4.9886 112.59C4.78081 114.407 6.20152 116 8.03 116H19.8578C21.6863 116 23.107 114.407 22.8992 112.59L21.2902 98.5205C21.0409 96.3411 19.8609 94.4732 18.1745 93.2954ZM15.9465 87.2922C15.9465 88.3984 15.0499 89.2951 13.9439 89.2951C12.8379 89.2951 11.9414 88.3984 11.9414 87.2922C11.9414 86.1861 12.8379 85.2893 13.9439 85.2893C15.0499 85.2893 15.9465 86.1861 15.9465 87.2922ZM15.9846 99.1275L17.3034 110.659H10.5844L11.9032 99.1274C12.0218 98.09 12.8998 97.3066 13.9439 97.3066C14.988 97.3066 15.866 98.09 15.9846 99.1275Z" fill="white"/>
</svg>
