<svg width="76" height="137" viewBox="0 0 76 137" fill="none" xmlns="http://www.w3.org/2000/svg">
<path fill-rule="evenodd" clip-rule="evenodd" d="M14.4728 0.0291669V0H61.8381V0.0133002C63.6616 0.129216 65.4234 1.0008 66.6232 2.54892L74.6208 12.8676C76.7132 15.5673 76.3918 19.4195 73.8808 21.735L55.1134 38.4441C52.0622 41.2578 47.6441 40.4678 45.4372 37.6419L43.6777 40.8928C43.5783 41.0765 43.4724 41.2528 43.3604 41.4218C45.1588 42.8451 46.4099 44.9454 46.7161 47.3719L48.2238 59.322L48.4369 59.5826L48.2735 59.7162L49.7366 71.3126L49.7601 71.3401L49.742 71.3556L55.8873 120.064C56.1701 122.306 55.2828 124.536 53.5372 125.971L41.9374 135.504C39.5102 137.499 36.0113 137.499 33.5841 135.504L21.9844 125.971C20.2387 124.536 19.3514 122.306 19.6342 120.064L28.8054 47.3719C29.1215 44.8671 30.4443 42.71 32.3367 41.2863C32.2567 41.1591 32.18 41.028 32.1069 40.8928L30.5974 38.1038C28.342 40.7898 24.0326 41.484 21.0483 38.7128L2.10245 21.8615C-0.387872 19.549 -0.707184 15.7202 1.36569 13.0271L9.39591 2.59408C10.6565 0.956235 12.5445 0.0702983 14.4728 0.0291669ZM43.4653 63.6506L44.1659 69.2034L29.8022 81.5163L30.7428 74.0609L43.4653 63.6506ZM27.736 97.8934L28.8215 89.2891L44.9551 75.459L45.7921 82.0928L27.736 97.8934ZM26.7441 105.755L25.6469 114.451L47.4169 94.9712L46.5867 88.3912L26.7441 105.755ZM25.3257 121.904C25.3057 121.888 25.2863 121.871 25.2674 121.854L48.2175 101.317L49.0454 107.879L29.0823 124.992L25.3257 121.904ZM33.211 128.385L36.9254 131.437C37.4109 131.836 38.1106 131.836 38.5961 131.437L50.1958 121.904C50.545 121.617 50.7224 121.171 50.6659 120.723L49.8346 114.135L33.211 128.385ZM42.6876 57.4864L42.0018 52.0507L32.6331 59.0779L31.6995 66.4775L42.6876 57.4864ZM42.6139 27.7025C42.8337 27.9746 43.0303 28.2622 43.2026 28.5624C42.2308 27.9768 41.0806 27.6324 39.8134 27.6324H35.9712C35.0341 27.6324 34.1611 27.8207 33.3768 28.1556C33.433 28.0791 33.4909 28.0036 33.5505 27.9293L37.0412 22.5831C37.4814 22.0343 37.8188 21.4381 38.0567 20.8168C38.2936 21.3979 38.6188 21.9554 39.0351 22.4706L42.6139 27.7025ZM51.6655 5.26331H24.2849L35.6291 13.0388C36.7387 13.7992 37.5386 14.8349 38.0056 15.988C38.4666 14.7767 39.2904 13.6867 40.4507 12.8969L51.6655 5.26331ZM60.6835 5.49174L43.4118 17.2481C42.776 17.6809 42.6453 18.5645 43.1287 19.1628L46.7076 24.3947C48.4097 26.5016 49.3383 29.1285 49.3383 31.8372V33.6073C49.3383 34.7541 50.7029 35.352 51.5459 34.5747L70.3133 17.8656C70.8155 17.4024 70.8797 16.632 70.4613 16.0921L62.4637 5.7734C62.0379 5.22398 61.2581 5.10061 60.6835 5.49174ZM15.3527 5.52182L32.654 17.3803C33.2855 17.8132 33.4155 18.6919 32.9364 19.2892L29.4457 24.6353C27.7593 26.7373 26.8402 29.3517 26.8402 32.0466V33.8915C26.8402 35.0404 25.4711 35.6375 24.6292 34.8557L5.6834 18.0044C5.18533 17.542 5.12147 16.7762 5.53605 16.2376L13.5663 5.80458C13.9923 5.25107 14.7765 5.12694 15.3527 5.52182ZM39.0494 38.3875C38.5518 39.3068 37.2328 39.3068 36.7352 38.3875L34.8141 34.8379C34.3396 33.9611 34.9744 32.8957 35.9712 32.8957H39.8134C40.8102 32.8957 41.445 33.9611 40.9705 34.8379L39.0494 38.3875ZM34.0269 48.0308C34.2643 46.1492 35.8644 44.7381 37.7608 44.7381C39.0251 44.7381 40.1577 45.3654 40.8427 46.3411L33.5499 51.8111L34.0269 48.0308Z" fill="white"/>
</svg>
