<svg width="34" height="31" viewBox="0 0 34 31" fill="none" xmlns="http://www.w3.org/2000/svg">
<path d="M14.0525 3.57495L3.34505 9.01168C2.6511 9.36404 2.6511 10.3697 3.34505 10.722L14.0525 16.1588C15.908 17.1009 18.092 17.1009 19.9475 16.1588L21.1831 15.5314L22.0205 16.012C22.6514 16.3742 23.0766 17.0069 23.1873 17.7207L21.2106 18.7243C18.56 20.0702 15.44 20.0702 12.7894 18.7243L8.76162 16.6792V20.8623C8.76162 21.6771 9.36811 22.6726 10.9096 23.5335C12.4086 24.3708 14.5597 24.9258 17 24.9258C19.4403 24.9258 21.5914 24.3708 23.0904 23.5335C23.133 23.5098 23.1748 23.4859 23.216 23.4619V26.1243C21.4562 26.8845 19.2985 27.3161 17 27.3161C14.2404 27.3161 11.6838 26.6939 9.7752 25.6279C7.90898 24.5856 6.40779 22.9517 6.40779 20.8623V15.4841L2.08186 13.2876C-0.693953 11.8782 -0.693952 7.85555 2.08186 6.44614L12.7894 1.00941C15.44 -0.336469 18.56 -0.336468 21.2106 1.00941L31.9181 6.44614C34.694 7.85556 34.694 11.8782 31.9181 13.2876L29.1555 14.6903C28.7996 13.7961 28.3053 12.9641 27.6914 12.2268L30.6549 10.722C31.3489 10.3697 31.3489 9.36404 30.6549 9.01169L19.9475 3.57495C18.092 2.63284 15.908 2.63284 14.0525 3.57495Z" fill="#898989"/>
<path d="M17.1716 9.40252C16.8547 9.97173 17.0542 10.6899 17.6192 11.0142L23.063 14.1393C24.4665 14.945 25.3344 16.4556 25.3344 18.0929V29.8231C25.3344 30.4731 25.8613 31 26.5113 31C27.1613 31 27.6882 30.4731 27.6882 29.8231V18.0929C27.6882 15.5938 26.3636 13.2882 24.2213 12.0584L18.8047 8.94902C18.2291 8.61858 17.4944 8.82259 17.1716 9.40252Z" fill="#898989"/>
</svg>
