<svg width="24" height="20" viewBox="0 0 24 20" fill="none" xmlns="http://www.w3.org/2000/svg">
<path d="M3.69388 19C2.20609 19 1 17.891 1 16.5229V4.09633C1 2.36347 2.52771 1 4.41224 1H7.4579C8.25674 1 9.01182 1.36491 9.50816 1.99083V1.99083C10.0045 2.61675 10.7596 2.98165 11.5584 2.98165H16.1755C18.4568 2.98165 20.3061 4.76472 20.3061 6.86238M3.69388 19V19C4.48002 19 5.11731 18.3627 5.11731 17.5766V8.51376C5.11731 7.60173 5.92137 6.86238 6.91323 6.86238C6.91323 6.86238 6.91323 6.86238 6.91323 6.86238C6.91323 6.86238 15.4265 6.86238 20.3061 6.86238M3.69388 19H12H20.3061C21.7939 19 23 17.891 23 16.5229V8.51376C23 7.60173 22.1959 6.86238 21.2041 6.86238C21.2041 6.86238 21.2041 6.86238 21.2041 6.86238C21.2041 6.86238 20.6568 6.86238 20.3061 6.86238" stroke="#676767" stroke-width="2" stroke-linecap="round" stroke-linejoin="round"/>
</svg>
