<svg width="31" height="117" viewBox="0 0 31 117" fill="none" xmlns="http://www.w3.org/2000/svg">
<path d="M0.60613 60.1818V57.2727C5.84855 57.2424 9.39401 56.303 11.2425 54.4545C13.1213 52.5758 14.0607 49.0303 14.0607 43.8182V20C14.0607 16.697 14.394 13.8333 15.0607 11.4091C15.7273 8.95454 16.7425 6.92424 18.1061 5.31818C19.4698 3.71212 21.1819 2.51515 23.2425 1.72727C25.3334 0.93939 27.7879 0.545448 30.6061 0.545448V3.45454C27.4546 3.42424 24.8637 3.98485 22.8334 5.13636C20.8334 6.28787 19.3486 8.0909 18.3789 10.5454C17.4395 12.9697 16.9698 16.1212 16.9698 20V43.8182C16.9698 46.8182 16.6819 49.3636 16.1061 51.4545C15.5304 53.5151 14.6061 55.197 13.3334 56.5C12.0607 57.7727 10.3789 58.7121 8.28795 59.3182C6.19704 59.8939 3.63643 60.1818 0.60613 60.1818ZM30.6061 116.909C27.7879 116.909 25.3334 116.515 23.2425 115.727C21.1819 114.939 19.4698 113.742 18.1061 112.136C16.7425 110.53 15.7273 108.5 15.0607 106.045C14.394 103.621 14.0607 100.758 14.0607 97.4545V73.6364C14.0607 68.4242 13.1213 64.8939 11.2425 63.0455C9.39401 61.1667 5.84855 60.2121 0.60613 60.1818V57.2727C3.63643 57.303 6.19704 57.6212 8.28795 58.2273C10.3789 58.803 12.0607 59.7273 13.3334 61C14.6061 62.2727 15.5304 63.9545 16.1061 66.0455C16.6819 68.1061 16.9698 70.6364 16.9698 73.6364V97.4545C16.9698 101.333 17.4395 104.485 18.3789 106.909C19.3486 109.364 20.8334 111.152 22.8334 112.273C24.8637 113.424 27.4546 114 30.6061 114V116.909ZM0.60613 60.1818V57.2727H10.4243V60.1818H0.60613Z" fill="white"/>
</svg>
