<svg width="22" height="22" viewBox="0 0 22 22" fill="none" xmlns="http://www.w3.org/2000/svg">
<path fill-rule="evenodd" clip-rule="evenodd" d="M13.0222 2.46978C15.0522 0.439753 18.3435 0.43974 20.3736 2.46978C22.4036 4.49982 22.4036 7.79115 20.3736 9.82118L18.5603 11.6348C18.0918 12.1033 17.3322 12.1033 16.8638 11.6348C16.3953 11.1663 16.3953 10.4068 16.8638 9.93833L18.6771 8.1247C19.7702 7.03161 19.7702 5.25936 18.6771 4.16626C17.584 3.07316 15.8117 3.07316 14.7187 4.16626L10.7602 8.1247C9.66711 9.21779 9.66711 10.99 10.7602 12.0831C11.2287 12.5516 11.2287 13.3112 10.7602 13.7796C10.2917 14.2481 9.5322 14.2481 9.06373 13.7796C7.03369 11.7496 7.0337 8.45825 9.06373 6.42823L13.0222 2.46978ZM9.71043 20.2627C7.6804 22.2927 4.38907 22.2928 2.35903 20.2627C0.328988 18.2327 0.329003 14.9413 2.35903 12.9113L4.17235 11.0977C4.64082 10.6292 5.40036 10.6292 5.86883 11.0977C6.3373 11.5662 6.3373 12.3257 5.86883 12.7942L4.05551 14.6078C2.96241 15.7009 2.96241 17.4731 4.05551 18.5662C5.1486 19.6593 6.92086 19.6593 8.01395 18.5662L11.9724 14.6078C13.0655 13.5147 13.0655 11.7424 11.9724 10.6493C11.5039 10.1809 11.5039 9.42133 11.9724 8.95287C12.4409 8.4844 13.2004 8.4844 13.6689 8.95287C15.6989 10.9829 15.6989 14.2742 13.6689 16.3043L9.71043 20.2627Z" fill="#D9D9D9"/>
</svg>
