<svg width="179" height="40" viewBox="0 0 179 40" fill="none" xmlns="http://www.w3.org/2000/svg">
<path d="M5.53639 28.9617C3.58327 28.9617 1.99995 27.3663 1.99995 25.3983V7.522C1.99995 5.0292 4.00549 3.06778 6.47944 3.06778H10.3783C11.4834 3.06778 12.5214 3.59789 13.1692 4.49313V4.49313C13.817 5.38837 14.855 5.91848 15.9601 5.91848H21.9219C24.9167 5.91848 27.3444 8.48351 27.3444 11.5011M5.53639 28.9617V28.9617C6.56841 28.9617 7.40503 28.125 7.40503 27.093V13.8767C7.40503 12.5647 8.46058 11.5011 9.76266 11.5011C9.76266 11.5011 9.76266 11.5011 9.76266 11.5011C9.76266 11.5011 20.9387 11.5011 27.3444 11.5011M5.53639 28.9617L16.4404 28.9617H27.3444C29.2975 28.9617 30.8809 27.3663 30.8809 25.3983V13.8767C30.8809 12.5647 29.8253 11.5011 28.5232 11.5011C28.5232 11.5011 28.5232 11.5011 28.5232 11.5011C28.5232 11.5011 27.8048 11.5011 27.3444 11.5011" stroke="white" stroke-width="2.5" stroke-linecap="round" stroke-linejoin="round"/>
<path d="M32.7668 25.2201C32.7668 29.1561 29.6002 32.3468 25.694 32.3468C21.7877 32.3468 18.6211 29.1561 18.6211 25.2201C18.6211 21.2841 21.7877 18.0933 25.694 18.0933C29.6002 18.0933 32.7668 21.2841 32.7668 25.2201Z" fill="#4B4A7F"/>
<path d="M22.1575 31.3934V36.4371C22.1575 37.9908 23.8455 38.9566 25.1849 38.1693V38.1693C25.4991 37.9846 25.8888 37.9846 26.203 38.1693V38.1693C27.5425 38.9566 29.2304 37.9908 29.2304 36.4371V31.3934M32.7668 25.2201C32.7668 29.1561 29.6002 32.3468 25.694 32.3468C21.7877 32.3468 18.6211 29.1561 18.6211 25.2201C18.6211 21.2841 21.7877 18.0933 25.694 18.0933C29.6002 18.0933 32.7668 21.2841 32.7668 25.2201Z" stroke="#4B4A7F" stroke-width="2.5"/>
<path d="M22.1575 31.3934V36.4371C22.1575 37.9908 23.8455 38.9566 25.1849 38.1693V38.1693C25.4991 37.9846 25.8888 37.9846 26.203 38.1693V38.1693C27.5425 38.9566 29.2304 37.9908 29.2304 36.4371V31.3934M32.7668 25.2201C32.7668 29.1561 29.6002 32.3468 25.694 32.3468C21.7877 32.3468 18.6211 29.1561 18.6211 25.2201C18.6211 21.2841 21.7877 18.0933 25.694 18.0933C29.6002 18.0933 32.7668 21.2841 32.7668 25.2201Z" stroke="white" stroke-width="2.5"/>
<path d="M23.8666 25.514C24.3142 25.965 24.7619 26.4161 25.2095 26.8671C25.265 26.923 25.2003 27.0039 25.3863 26.8165C25.605 26.5961 25.8237 26.3757 26.0424 26.1554C26.2759 25.9201 26.5093 25.6848 26.7428 25.4496C27.1996 24.9893 27.6564 24.529 28.1132 24.0688" stroke="white" stroke-width="2.5" stroke-linecap="round"/>
<path d="M52.6694 25.9875H51.4094L58.8494 14.3675H61.5094V27.3075H58.8494V17.9075L59.4894 18.0875L53.5494 27.3075H50.5694L44.6294 18.1275L45.2694 17.9475V27.3075H42.6094V14.3675H45.2694L52.6694 25.9875ZM76.0621 14.3675L70.3821 23.2275V27.3075H67.7021V23.2275L62.0221 14.3675H65.1021L69.8821 22.1075H68.2821L72.9821 14.3675H76.0621ZM89.2067 14.3675V16.5875H79.2467V20.0675H87.4067V22.1475H79.2467V27.3075H76.5867V14.3675H89.2067ZM97.0469 27.5675C95.3269 27.5675 93.8536 27.3009 92.6269 26.7675C91.4136 26.2209 90.4802 25.4475 89.8269 24.4475C89.1869 23.4475 88.8669 22.2475 88.8669 20.8475C88.8669 19.4342 89.1869 18.2275 89.8269 17.2275C90.4802 16.2275 91.4136 15.4609 92.6269 14.9275C93.8536 14.3809 95.3269 14.1075 97.0469 14.1075C98.7802 14.1075 100.254 14.3809 101.467 14.9275C102.68 15.4609 103.607 16.2275 104.247 17.2275C104.9 18.2275 105.227 19.4342 105.227 20.8475C105.227 22.2475 104.9 23.4475 104.247 24.4475C103.607 25.4475 102.68 26.2209 101.467 26.7675C100.254 27.3009 98.7802 27.5675 97.0469 27.5675ZM97.0469 25.2675C98.1136 25.2675 99.0469 25.1075 99.8469 24.7875C100.66 24.4675 101.294 23.9809 101.747 23.3275C102.214 22.6742 102.447 21.8475 102.447 20.8475C102.447 19.8475 102.214 19.0209 101.747 18.3675C101.294 17.7142 100.66 17.2275 99.8469 16.9075C99.0469 16.5742 98.1136 16.4075 97.0469 16.4075C95.9936 16.4075 95.0536 16.5742 94.2269 16.9075C93.4002 17.2275 92.7536 17.7142 92.2869 18.3675C91.8202 19.0209 91.5869 19.8475 91.5869 20.8475C91.5869 21.8475 91.8202 22.6742 92.2869 23.3275C92.7536 23.9809 93.4002 24.4675 94.2269 24.7875C95.0536 25.1075 95.9936 25.2675 97.0469 25.2675ZM109.083 14.3675V25.0875H117.683V27.3075H106.423V14.3675H109.083ZM126.154 14.3675C127.607 14.3675 128.821 14.5409 129.794 14.8875C130.767 15.2342 131.541 15.7075 132.114 16.3075C132.701 16.8942 133.114 17.5742 133.354 18.3475C133.607 19.1209 133.734 19.9342 133.734 20.7875C133.734 21.6409 133.594 22.4609 133.314 23.2475C133.047 24.0342 132.614 24.7342 132.014 25.3475C131.427 25.9475 130.647 26.4275 129.674 26.7875C128.714 27.1342 127.541 27.3075 126.154 27.3075H118.754V14.3675H126.154ZM121.414 25.0275H126.094C127.054 25.0275 127.847 24.9142 128.474 24.6875C129.114 24.4475 129.621 24.1275 129.994 23.7275C130.367 23.3275 130.634 22.8742 130.794 22.3675C130.954 21.8609 131.034 21.3342 131.034 20.7875C131.034 20.2409 130.954 19.7209 130.794 19.2275C130.634 18.7342 130.367 18.2942 129.994 17.9075C129.621 17.5209 129.114 17.2142 128.474 16.9875C127.847 16.7609 127.054 16.6475 126.094 16.6475H121.414V25.0275ZM137.592 21.9075V25.0875H147.572V27.3075H134.932V14.3675H147.552V16.5875H137.592V19.8075H145.752V21.9075H137.592ZM148.903 27.3075V14.3675H157.683C158.683 14.3675 159.55 14.5075 160.283 14.7875C161.03 15.0542 161.61 15.4809 162.023 16.0675C162.436 16.6409 162.643 17.3809 162.643 18.2875C162.643 18.9009 162.536 19.4209 162.323 19.8475C162.11 20.2742 161.81 20.6209 161.423 20.8875C161.05 21.1542 160.616 21.3609 160.123 21.5075C159.63 21.6409 159.103 21.7275 158.543 21.7675L158.263 21.6075C159.196 21.6209 159.963 21.7009 160.563 21.8475C161.163 21.9809 161.61 22.2342 161.903 22.6075C162.21 22.9675 162.363 23.5075 162.363 24.2275V27.3075H159.703V24.4075C159.703 23.9142 159.616 23.5342 159.443 23.2675C159.27 22.9875 158.956 22.7942 158.503 22.6875C158.063 22.5809 157.423 22.5275 156.583 22.5275H151.563V27.3075H148.903ZM151.563 20.4475H157.683C158.43 20.4475 158.996 20.2675 159.383 19.9075C159.783 19.5475 159.983 19.0609 159.983 18.4475C159.983 17.8609 159.783 17.4142 159.383 17.1075C158.996 16.8009 158.43 16.6475 157.683 16.6475H151.563V20.4475Z" fill="white"/>
</svg>
