<svg width="27" height="33" viewBox="0 0 27 33" fill="none" xmlns="http://www.w3.org/2000/svg">
<path d="M13.6943 1C6.69462 1 1 6.69462 1 13.6943C1 16.5826 1.94652 19.3027 3.73729 21.5606C4.88785 23.0113 7.2779 25.6057 9.42896 27.8875C11.7474 30.3469 15.6415 30.3469 17.96 27.8876C20.1118 25.6051 22.5029 23.0095 23.6539 21.5581C25.443 19.302 26.3887 16.5828 26.3887 13.6943C26.3887 6.69462 20.694 1 13.6943 1ZM22.3214 20.5015C21.1277 22.0067 18.6476 24.6904 16.5576 26.9038C15.0017 28.5514 12.387 28.5514 10.8311 26.9037C8.74184 24.691 6.26294 22.0085 5.06967 20.5039C3.51979 18.5497 2.70055 16.195 2.70055 13.6943C2.70055 7.63231 7.63231 2.70055 13.6943 2.70055C19.7563 2.70055 24.6881 7.63231 24.688 13.6943C24.688 16.1952 23.8697 18.5491 22.3214 20.5015Z" fill="#898989" stroke="#898989"/>
<path d="M13.5 8.5C10.743 8.5 8.5 10.743 8.5 13.5C8.5 16.257 10.743 18.5 13.5 18.5C16.257 18.5 18.5 16.257 18.5 13.5C18.5 10.743 16.257 8.5 13.5 8.5ZM13.5 17.3684C11.3669 17.3684 9.63155 15.633 9.63155 13.5C9.63155 11.3669 11.367 9.63155 13.5 9.63155C15.633 9.63155 17.3684 11.367 17.3684 13.5C17.3684 15.6331 15.6331 17.3684 13.5 17.3684Z" fill="#898989" stroke="#898989"/>
</svg>
