<svg width="27" height="29" viewBox="0 0 27 29" fill="none" xmlns="http://www.w3.org/2000/svg">
<path d="M16 2.5C16 2.59989 15.9941 2.69842 15.9827 2.79525C20.5835 3.91064 24 8.05633 24 13V19C24 19.8284 24.6716 20.5 25.5 20.5C26.3284 20.5 27 21.1716 27 22C27 22.8284 26.3284 23.5 25.5 23.5C23.0147 23.5 21 21.4853 21 19V13C21 8.85786 17.6421 5.5 13.5 5.5C9.35786 5.5 6 8.85786 6 13V19C6 21.4853 3.98528 23.5 1.5 23.5C0.671573 23.5 0 22.8284 0 22C0 21.1716 0.671573 20.5 1.5 20.5C2.32843 20.5 3 19.8284 3 19V13C3 8.05633 6.41653 3.91064 11.0173 2.79525C11.0059 2.69842 11 2.59989 11 2.5C11 1.11929 12.1193 0 13.5 0C14.8807 0 16 1.11929 16 2.5Z" fill="white"/>
<path d="M13.5 25.5C12.6716 25.5 12 24.8284 12 24H9C9 26.4853 11.0147 28.5 13.5 28.5C15.9853 28.5 18 26.4853 18 24H15C15 24.8284 14.3284 25.5 13.5 25.5Z" fill="white"/>
</svg>
