<svg width="27" height="29" viewBox="0 0 27 29" fill="none" xmlns="http://www.w3.org/2000/svg">
<path d="M16 2.5C16 2.6689 16.1066 2.82468 16.2696 2.86912C20.7248 4.08424 24 8.15964 24 13V19C24 19.8284 24.6716 20.5 25.5 20.5C26.3284 20.5 27 21.1716 27 22C27 22.8284 26.3284 23.5 25.5 23.5C23.0147 23.5 21 21.4853 21 19V13C21 8.85786 17.6421 5.5 13.5 5.5C9.35786 5.5 6 8.85786 6 13V19C6 21.4853 3.98528 23.5 1.5 23.5C0.671573 23.5 0 22.8284 0 22C0 21.1716 0.671573 20.5 1.5 20.5C2.32843 20.5 3 19.8284 3 19V13C3 8.15964 6.27524 4.08424 10.7304 2.86912C10.8934 2.82468 11 2.6689 11 2.5C11 1.11929 12.1193 0 13.5 0C14.8807 0 16 1.11929 16 2.5Z" fill="#14DEAE"/>
<path d="M13.5 25.5C13.2014 25.5 12.9232 25.4127 12.6894 25.2623C11.9927 24.8141 11.3284 24 10.5 24C9.67157 24 8.97553 24.69 9.24656 25.4728C9.85658 27.2348 11.5305 28.5 13.5 28.5C15.4695 28.5 17.1434 27.2348 17.7534 25.4728C18.0245 24.69 17.3284 24 16.5 24C15.6716 24 15.0073 24.8141 14.3106 25.2623C14.0768 25.4127 13.7986 25.5 13.5 25.5Z" fill="#14DEAE"/>
</svg>
