<svg width="25" height="25" viewBox="0 0 25 25" fill="none" xmlns="http://www.w3.org/2000/svg">
<path fill-rule="evenodd" clip-rule="evenodd" d="M12.6657 19.107H12.3343C12.32 19.1772 12.305 19.2456 12.2893 19.3122C12.1129 20.0615 11.8679 20.6381 11.5543 21.042C11.2407 21.446 10.8716 21.7229 10.4469 21.8727C10.0157 22.0226 9.54854 22.0975 9.04547 22.0975H5.47824C4.75304 22.0975 4.1585 22.1822 3.69463 22.3516C3.22423 22.5145 2.87796 22.8076 2.65582 23.2311C2.43369 23.6546 2.32262 24.2442 2.32262 25H0C0 24.0358 0.0914674 23.1985 0.274402 22.4884C0.457337 21.7782 0.754606 21.1919 1.16621 20.7293C1.57781 20.2667 2.12662 19.9247 2.81262 19.7032C3.49209 19.4751 4.33163 19.3611 5.33124 19.3611H8.14387C9.19574 19.3611 9.95035 19.1428 10.4077 18.7063C10.759 18.3661 10.9735 17.8241 11.051 17.0802C6.97508 16.3954 3.87011 12.8593 3.87011 8.60005C3.87011 3.85037 7.73124 0 12.4942 0C17.2571 0 21.1183 3.85037 21.1183 8.60005C21.1183 12.8585 18.0144 16.3941 13.9397 17.0798C14.0183 17.8239 14.2358 18.3661 14.5923 18.7063C15.0497 19.1428 15.801 19.3611 16.8463 19.3611H19.6688C20.6684 19.3611 21.5079 19.4751 22.1874 19.7032C22.8734 19.9247 23.4222 20.2667 23.8338 20.7293C24.2454 21.1919 24.5427 21.7782 24.7256 22.4884C24.9085 23.1985 25 24.0358 25 25H22.6774C22.6774 24.2442 22.563 23.6546 22.3344 23.2311C22.1122 22.8076 21.766 22.5145 21.2956 22.3516C20.8317 22.1822 20.2404 22.0975 19.5218 22.0975H15.9545C15.4515 22.0975 14.9876 22.0226 14.5629 21.8727C14.1317 21.7229 13.7593 21.446 13.4457 21.042C13.1256 20.6381 12.8806 20.0615 12.7107 19.3122C12.695 19.2456 12.68 19.1772 12.6657 19.107ZM18.531 8.60005C18.531 11.9248 15.8282 14.6201 12.4942 14.6201C9.16012 14.6201 6.45733 11.9248 6.45733 8.60005C6.45733 5.27528 9.16012 2.58001 12.4942 2.58001C15.8282 2.58001 18.531 5.27528 18.531 8.60005Z" fill="white"/>
</svg>
