<?xml version="1.0"?>
<svg width="21" height="20" xmlns="http://www.w3.org/2000/svg" xmlns:svg="http://www.w3.org/2000/svg">
 <g class="layer">
  <title>Layer 1</title>
  <path d="m10.72,1.92l2.11,3.74c0.38,0.67 1.02,1.15 1.77,1.33l4.16,0.96c0.18,0.05 0.26,0.27 0.14,0.41l-2.89,3.41c-0.48,0.56 -0.71,1.29 -0.64,2.02l0.41,4.47c0.02,0.19 -0.18,0.33 -0.35,0.25l-3.8,-1.72c-0.72,-0.33 -1.54,-0.33 -2.26,0l-3.8,1.72c-0.17,0.08 -0.37,-0.06 -0.35,-0.25l0.41,-4.47c0.07,-0.73 -0.16,-1.46 -0.64,-2.02l-2.89,-3.41c-0.12,-0.14 -0.04,-0.36 0.14,-0.41l4.16,-0.96c0.75,-0.18 1.39,-0.66 1.77,-1.33l2.11,-3.74c0.1,-0.17 0.34,-0.17 0.44,0z" fill="#14deae" id="svg_1" stroke="#14DEAE" stroke-width="2.5"/>
 </g>

</svg>