<svg width="21" height="20" viewBox="0 0 21 20" fill="none" xmlns="http://www.w3.org/2000/svg">
<path d="M10.7176 1.92406L12.8323 5.66333C13.2113 6.33355 13.854 6.81417 14.604 6.98833L18.7619 7.95383C18.9441 7.99613 19.017 8.21614 18.8962 8.35888L16.0113 11.7669C15.5349 12.3296 15.3045 13.0601 15.3717 13.7943L15.78 18.2563C15.7974 18.4472 15.6025 18.5859 15.4279 18.5068L11.6342 16.7893C10.9133 16.463 10.0867 16.463 9.36582 16.7893L5.57211 18.5068C5.39752 18.5859 5.20258 18.4472 5.22005 18.2563L5.62834 13.7943C5.69552 13.0601 5.46508 12.3296 4.98874 11.7669L2.10384 8.35888C1.98302 8.21614 2.05595 7.99613 2.23811 7.95383L6.396 6.98833C7.14602 6.81417 7.78867 6.33355 8.1677 5.66333L10.2824 1.92406C10.3781 1.75482 10.6219 1.75482 10.7176 1.92406Z" stroke="#14DEAE" stroke-width="2.5"/>
</svg>
