<?xml version="1.0" encoding="UTF-8"?>
<svg xmlns="http://www.w3.org/2000/svg" xmlns:xlink="http://www.w3.org/1999/xlink" width="16px" height="16px" viewBox="0 0 16 16" version="1.1">
<g id="surface1">
<path style=" stroke:none;fill-rule:nonzero;fill:rgb(0%,0%,0%);fill-opacity:1;" d="M 8 0 C 3.582031 0 0 3.582031 0 8 C 0 12.417969 3.582031 16 8 16 C 12.417969 16 16 12.417969 16 8 C 16 3.582031 12.417969 0 8 0 Z M 8 15.015625 C 4.140625 15.015625 1 11.859375 1 8 C 1 4.140625 4.140625 1 8 1 C 11.859375 1 15 4.140625 15 8 C 15 11.859375 11.859375 15.015625 8 15.015625 Z M 11.5 7.5 L 8.5 7.5 L 8.5 4.5 C 8.5 4.222656 8.277344 4 8 4 C 7.722656 4 7.5 4.222656 7.5 4.5 L 7.5 7.5 L 4.5 7.5 C 4.222656 7.5 4 7.722656 4 8 C 4 8.277344 4.222656 8.5 4.5 8.5 L 7.5 8.5 L 7.5 11.5 C 7.5 11.777344 7.722656 12 8 12 C 8.277344 12 8.5 11.777344 8.5 11.5 L 8.5 8.5 L 11.5 8.5 C 11.777344 8.5 12 8.277344 12 8 C 12 7.722656 11.777344 7.5 11.5 7.5 Z M 11.5 7.5 "/>
</g>
</svg>
