<svg width="259" height="259" viewBox="0 0 259 259" fill="none" xmlns="http://www.w3.org/2000/svg">
<path d="M16.8668 63.3242L110.837 16.3315C122.586 10.4563 136.414 10.4563 148.163 16.3315L242.133 63.3242C248.45 66.483 248.785 75.3744 242.724 78.9997L150.919 133.911C137.729 141.801 121.271 141.801 108.081 133.911L56.5596 103.095L49.0181 105.357V112.479L101.961 144.146C118.92 154.289 140.08 154.289 157.039 144.146L248.843 89.2343C262.986 80.7753 262.204 60.0286 247.465 52.658L153.495 5.66537C138.39 -1.88845 120.61 -1.88846 105.505 5.66536L11.5346 52.658C-3.20418 60.0286 -3.98583 80.7753 10.1565 89.2343L13.2721 91.0978C13.3191 90.2151 13.4312 89.3435 13.6048 88.4897C14.1395 85.8504 15.251 83.4281 16.7896 81.3631C17.1439 80.8871 17.5229 80.4274 17.9254 79.9862L16.2762 78.9997C10.2152 75.3744 10.5502 66.483 16.8668 63.3242Z" fill="#14DEAE"/>
<path fill-rule="evenodd" clip-rule="evenodd" d="M37.0949 96.4848L42.698 94.8035L105.08 76.0859C110.002 81.722 119.096 86.0856 129.5 86.0856C145.139 86.0856 157.818 76.2259 157.818 67.0054C157.818 57.7849 145.139 50.3102 129.5 50.3102C115.172 50.3102 103.329 56.5842 101.444 64.7266L29.5485 86.2987C29.1167 86.4175 28.7045 86.5837 28.3178 86.7913C27.5299 87.2123 26.8638 87.7972 26.35 88.4889C26.2536 88.6183 26.1623 88.7518 26.0764 88.8891C25.7325 89.4385 25.4756 90.0481 25.3251 90.6983L42.698 94.8035L25.2898 90.8616C25.2199 91.2042 25.1798 91.555 25.1717 91.9099C25.1696 92.0004 25.1696 92.0913 25.1717 92.1824L25.1717 167.209C27.0938 166.797 29.0883 166.58 31.1334 166.58C33.1784 166.58 35.1729 166.797 37.0949 167.209L37.0949 96.4848ZM143.469 65.4733C144.733 66.2187 145.382 66.8162 145.702 67.191C145.395 67.7536 144.615 68.872 142.648 70.2604C139.561 72.4401 134.889 74.1605 129.5 74.1605C124.111 74.1605 119.44 72.4401 116.352 70.2604C114.385 68.872 113.605 67.7535 113.298 67.191C113.618 66.8162 114.267 66.2187 115.531 65.4733C118.522 63.7101 123.433 62.2354 129.5 62.2354C135.567 62.2354 140.478 63.7101 143.469 65.4733ZM113.01 67.627C113.01 67.627 113.015 67.5989 113.043 67.5471C113.027 67.6019 113.01 67.627 113.01 67.627ZM145.957 67.5471C145.985 67.5989 145.99 67.627 145.99 67.627C145.99 67.627 145.973 67.6019 145.957 67.5471Z" fill="#14DEAE"/>
<path fill-rule="evenodd" clip-rule="evenodd" d="M49.0235 157.636C49.0197 157.55 49.0178 157.462 49.0178 157.374V126.608C49.0178 126.53 49.0193 126.453 49.0223 126.376L60.9411 133.505V136.767C60.9411 143.81 66.5384 151.218 79.3285 157.191C91.8178 163.023 109.532 166.58 129.5 166.58C149.468 166.58 167.182 163.023 179.672 157.191C192.42 151.238 198.022 143.859 198.058 136.837V133.505L209.977 126.376C209.98 126.453 209.982 126.531 209.982 126.608V157.374C209.982 157.429 209.981 157.483 209.979 157.537L209.976 157.636H209.982C209.982 173.041 199.536 185.108 185.046 193.003C170.478 200.94 150.809 205.337 129.5 205.337C108.191 205.337 88.5216 200.94 73.9544 193.003C59.4642 185.108 49.0182 173.041 49.0182 157.636H49.0235ZM129.5 193.412C109.653 193.412 92.062 189.289 79.6581 182.531C68.1432 176.257 61.944 168.28 61.0535 159.784C64.8781 162.974 69.3972 165.714 74.2841 167.996C88.7658 174.759 108.311 178.505 129.5 178.505C150.689 178.505 170.234 174.759 184.716 167.996C189.603 165.714 194.122 162.974 197.947 159.784C197.056 168.28 190.857 176.257 179.342 182.531C166.938 189.289 149.347 193.412 129.5 193.412Z" fill="#14DEAE"/>
<path fill-rule="evenodd" clip-rule="evenodd" d="M40.5792 208.306C44.7827 205.337 47.5278 200.44 47.5278 194.902C47.5278 187.95 43.2017 182.008 37.0949 179.623C36.9873 179.581 36.8791 179.54 36.7703 179.5C35.0126 178.857 33.114 178.505 31.1334 178.505C29.0301 178.505 27.0194 178.901 25.1717 179.623C19.065 182.008 14.7389 187.95 14.7389 194.902C14.7389 200.44 17.484 205.337 21.6875 208.306C17.9221 210.936 15.2874 215.106 14.7309 219.973L11.1383 251.387C10.6744 255.444 13.8465 259 17.929 259H44.3377C48.4202 259 51.5923 255.444 51.1284 251.387L47.5358 219.973C46.9793 215.106 44.3447 210.936 40.5792 208.306ZM35.6046 194.902C35.6046 197.372 33.6027 199.374 31.1334 199.374C28.664 199.374 26.6622 197.372 26.6622 194.902C26.6622 192.433 28.664 190.43 31.1334 190.43C33.6027 190.43 35.6046 192.433 35.6046 194.902ZM35.6898 221.328L38.6343 247.075H23.6325L26.5769 221.328C26.8418 219.011 28.8021 217.262 31.1334 217.262C33.4646 217.262 35.4249 219.011 35.6898 221.328Z" fill="#14DEAE"/>
</svg>
