<svg width="163" height="293" viewBox="0 0 163 293" fill="none" xmlns="http://www.w3.org/2000/svg">
<path fill-rule="evenodd" clip-rule="evenodd" d="M31.0403 0.0623788V0H132.626V0.0284449C136.537 0.276352 140.316 2.1404 142.889 5.45133L160.042 27.5197C164.53 33.2936 163.84 41.5321 158.455 46.4843L118.204 82.2199C111.66 88.2375 102.184 86.5479 97.4508 80.5042L93.6772 87.457C93.464 87.8497 93.2368 88.2268 92.9966 88.5882C96.8538 91.6322 99.5371 96.124 100.194 101.314L103.427 126.871L103.884 127.428L103.534 127.714L106.672 152.515L106.722 152.574L106.683 152.607L119.864 256.78C120.47 261.574 118.567 266.344 114.823 269.412L89.9447 289.8C84.739 294.067 77.2349 294.067 72.0291 289.8L47.1507 269.412C43.4067 266.344 41.5037 261.574 42.1103 256.78L61.7801 101.314C62.4579 95.9567 65.2951 91.3434 69.3538 88.2984C69.1821 88.0264 69.0177 87.7459 68.8608 87.457L65.6235 81.4922C60.7861 87.2366 51.5436 88.7213 45.143 82.7945L4.5092 46.7549C-0.831883 41.8092 -1.51672 33.6205 2.92904 27.8608L20.1518 5.54792C22.8555 2.04509 26.9046 0.150346 31.0403 0.0623788ZM93.2217 136.129L94.7242 148.004L63.9178 174.338L65.9352 158.393L93.2217 136.129ZM59.4863 209.363L61.8146 190.961L96.417 161.383L98.212 175.571L59.4863 209.363ZM57.359 226.177L55.0059 244.776L101.697 203.114L99.9163 189.041L57.359 226.177ZM54.3169 260.715C54.274 260.68 54.2324 260.644 54.1919 260.607L103.414 216.686L105.189 230.719L62.374 267.318L54.3169 260.715ZM71.2288 274.575L79.1953 281.103C80.2365 281.957 81.7373 281.957 82.7785 281.103L107.657 260.715C108.406 260.102 108.786 259.148 108.665 258.189L106.882 244.098L71.2288 274.575ZM91.5537 122.945L90.0829 111.32L69.9894 126.349L67.9872 142.175L91.5537 122.945ZM91.3957 59.2469C91.8671 59.8288 92.2887 60.444 92.6582 61.0861C90.574 59.8335 88.1071 59.097 85.3893 59.097H77.1488C75.139 59.097 73.2665 59.4997 71.5845 60.216C71.7049 60.0523 71.8291 59.8909 71.957 59.7319L79.4436 48.2981C80.3878 47.1245 81.1115 45.8493 81.6217 44.5207C82.1298 45.7633 82.8272 46.9557 83.7199 48.0576L91.3957 59.2469ZM110.809 11.2566H52.0848L76.4151 27.8858C78.7948 29.5122 80.5104 31.7271 81.512 34.1933C82.5006 31.6026 84.2676 29.2715 86.756 27.5825L110.809 11.2566ZM130.15 11.7451L93.1069 36.8882C91.7432 37.8138 91.463 39.7036 92.4997 40.9832L100.175 52.1725C103.826 56.6787 105.818 62.2967 105.818 68.0899V71.8755C105.818 74.328 108.744 75.6069 110.552 73.9444L150.803 38.2088C151.881 37.2184 152.018 35.5707 151.121 34.4159L133.968 12.3475C133.055 11.1725 131.383 10.9086 130.15 11.7451ZM32.9274 11.8094L70.0341 37.171C71.3887 38.0969 71.6675 39.9761 70.6398 41.2535L63.1532 52.6873C59.5363 57.1827 57.5651 62.774 57.5651 68.5377V72.4833C57.5651 74.9404 54.6288 76.2174 52.8232 74.5455L12.1894 38.5059C11.1212 37.5167 10.9842 35.879 11.8734 34.727L29.0961 12.4142C30.0098 11.2304 31.6918 10.9649 32.9274 11.8094ZM83.7507 82.0987C82.6836 84.0648 79.8545 84.0648 78.7874 82.0987L74.6671 74.5072C73.6495 72.6322 75.0108 70.3535 77.1488 70.3535H85.3893C87.5272 70.3535 88.8886 72.6322 87.8709 74.5072L83.7507 82.0987ZM72.9787 102.723C73.4878 98.6986 76.9197 95.6808 80.9869 95.6808C83.6986 95.6808 86.1278 97.0222 87.5968 99.109L71.9557 110.808L72.9787 102.723Z" fill="#14DEAE"/>
</svg>
