<svg width="31" height="117" viewBox="0 0 31 117" fill="none" xmlns="http://www.w3.org/2000/svg">
<path d="M30.8125 57.2727V60.1818C25.5701 60.2121 22.0095 61.1667 20.1307 63.0455C18.2822 64.8939 17.358 68.4242 17.358 73.6364V97.4545C17.358 100.758 17.0246 103.621 16.358 106.045C15.6913 108.5 14.6761 110.53 13.3125 112.136C11.9489 113.742 10.2216 114.939 8.13068 115.727C6.07008 116.515 3.63068 116.909 0.8125 116.909V114C3.99432 114 6.58523 113.424 8.58523 112.273C10.5852 111.152 12.0549 109.364 12.9943 106.909C13.964 104.485 14.4489 101.333 14.4489 97.4545V73.6364C14.4489 70.6364 14.7367 68.1061 15.3125 66.0455C15.8883 63.9545 16.8125 62.2727 18.0852 61C19.358 59.697 21.0398 58.7576 23.1307 58.1818C25.2216 57.5758 27.7822 57.2727 30.8125 57.2727ZM0.8125 0.545448C3.63068 0.545448 6.07008 0.93939 8.13068 1.72727C10.2216 2.51515 11.9489 3.71212 13.3125 5.31818C14.6761 6.92424 15.6913 8.95454 16.358 11.4091C17.0246 13.8333 17.358 16.697 17.358 20V43.8182C17.358 49.0303 18.2822 52.5758 20.1307 54.4545C22.0095 56.303 25.5701 57.2424 30.8125 57.2727V60.1818C27.7822 60.1515 25.2216 59.8485 23.1307 59.2727C21.0398 58.6667 19.358 57.7273 18.0852 56.4545C16.8125 55.1818 15.8883 53.5151 15.3125 51.4545C14.7367 49.3636 14.4489 46.8182 14.4489 43.8182V20C14.4489 16.1212 13.964 12.9697 12.9943 10.5454C12.0549 8.0909 10.5852 6.28787 8.58523 5.13636C6.58523 3.98485 3.99432 3.42424 0.8125 3.45454V0.545448ZM30.8125 57.2727V60.1818H20.9943V57.2727H30.8125Z" fill="white"/>
</svg>
