<svg width="26" height="25" viewBox="0 0 26 25" fill="none" xmlns="http://www.w3.org/2000/svg">
<path fill-rule="evenodd" clip-rule="evenodd" d="M16.0679 17.9493C14.3851 19.2358 12.2818 20 10 20C4.47715 20 0 15.5228 0 10C0 4.47715 4.47715 0 10 0C15.5228 0 20 4.47715 20 10C20 12.1578 19.3165 14.156 18.1543 15.7899L24.872 21.7612C25.4912 22.3116 25.5469 23.2597 24.9965 23.8789C24.4462 24.4981 23.4981 24.5538 22.8789 24.0035L16.0679 17.9493ZM17.5 10C17.5 14.1421 14.1421 17.5 10 17.5C5.85786 17.5 2.5 14.1421 2.5 10C2.5 5.85786 5.85786 2.5 10 2.5C14.1421 2.5 17.5 5.85786 17.5 10Z" fill="#BAB4B4"/>
</svg>
