<svg width="30" height="30" viewBox="0 0 30 30" fill="none" xmlns="http://www.w3.org/2000/svg">
<path d="M23 10C22.4923 9.5322 21.7015 9.56455 21.2337 10.0722L14.0803 17.8357C13.9218 18.0078 13.65 18.0078 13.4914 17.8357L10.7663 14.8782C10.2985 14.3705 9.5077 14.3381 9 14.8059C8.4923 15.2737 8.45996 16.0645 8.92776 16.5722L13.0369 21.0319C13.4403 21.4696 14.1315 21.4696 14.5348 21.0319L23.0722 11.7663C23.54 11.2586 23.5077 10.4678 23 10Z" fill="#3EDC17"/>
<path fill-rule="evenodd" clip-rule="evenodd" d="M30 15C30 23.2843 23.2843 30 15 30C6.71573 30 0 23.2843 0 15C0 6.71573 6.71573 0 15 0C23.2843 0 30 6.71573 30 15ZM27.5 15C27.5 21.9036 21.9036 27.5 15 27.5C8.09644 27.5 2.5 21.9036 2.5 15C2.5 8.09644 8.09644 2.5 15 2.5C21.9036 2.5 27.5 8.09644 27.5 15Z" fill="#3EDC17"/>
</svg>
