<svg width="30" height="30" viewBox="0 0 30 30" fill="none" xmlns="http://www.w3.org/2000/svg">
<path d="M16 14.4208C16 14.7659 16.1667 15.0898 16.4475 15.2904L21.3487 18.7913C21.7982 19.1123 21.9022 19.7369 21.5812 20.1863C21.2602 20.6357 20.6357 20.7398 20.1863 20.4188L14.7043 16.5031C14.2623 16.1874 14 15.6776 14 15.1345V7C14 6.44772 14.4477 6 15 6C15.5523 6 16 6.44772 16 7V14.4208Z" fill="#305EFF"/>
<path fill-rule="evenodd" clip-rule="evenodd" d="M30 15C30 23.2843 23.2843 30 15 30C6.71573 30 0 23.2843 0 15C0 6.71573 6.71573 0 15 0C23.2843 0 30 6.71573 30 15ZM27.5 15C27.5 21.9036 21.9036 27.5 15 27.5C8.09644 27.5 2.5 21.9036 2.5 15C2.5 8.09644 8.09644 2.5 15 2.5C21.9036 2.5 27.5 8.09644 27.5 15Z" fill="#305EFF"/>
</svg>
