<svg width="30" height="30" viewBox="0 0 30 30" fill="none" xmlns="http://www.w3.org/2000/svg">
<path d="M20.8843 20.7161C20.3962 21.2043 19.6047 21.2043 19.1166 20.7161L15.3108 16.9104C15.1669 16.7665 14.9336 16.7665 14.7897 16.9104L10.9486 20.7515C10.48 21.2202 9.72017 21.2202 9.25154 20.7515C8.78291 20.2829 8.78291 19.5231 9.25154 19.0545L13.0952 15.2109C13.2377 15.0683 13.2377 14.8373 13.0952 14.6947L9.3341 10.9337C8.84594 10.4455 8.84594 9.65406 9.3341 9.1659C9.82225 8.67775 10.6137 8.67775 11.1019 9.16591L14.8667 12.9307C15.0071 13.0712 15.2349 13.0712 15.3753 12.9307L19.1047 9.20131C19.5733 8.73268 20.3331 8.73268 20.8018 9.20131C21.2704 9.66994 21.2704 10.4297 20.8018 10.8984L17.0724 14.6278C16.9319 14.7682 16.9319 14.996 17.0724 15.1364L20.8843 18.9484C21.3725 19.4365 21.3725 20.228 20.8843 20.7161Z" fill="#FF2E00"/>
<path fill-rule="evenodd" clip-rule="evenodd" d="M30 15C30 23.2843 23.2843 30 15 30C6.71573 30 0 23.2843 0 15C0 6.71573 6.71573 0 15 0C23.2843 0 30 6.71573 30 15ZM27.5 15C27.5 21.9036 21.9036 27.5 15 27.5C8.09644 27.5 2.5 21.9036 2.5 15C2.5 8.09644 8.09644 2.5 15 2.5C21.9036 2.5 27.5 8.09644 27.5 15Z" fill="#FF2E00"/>
</svg>
