<svg width="1440" height="26" viewBox="0 0 1440 26" fill="none" xmlns="http://www.w3.org/2000/svg">
<path d="M1178.3 8.50286C1196.27 1.3895 1198.47 0.711208 1205.17 0.119878C1208.9 -0.193179 1212.79 0.102486 1217.31 1.05905C1221.45 1.94605 1223.73 2.72869 1233.75 6.71147C1244.31 10.9204 1245.63 11.3899 1248.94 12.2074C1256.6 14.1031 1262.94 13.964 1270.68 11.79C1273 11.1465 1278.01 9.30289 1284.27 6.81582C1294.78 2.62434 1297.64 1.65038 1301.91 0.832953C1307.66 -0.297532 1312.92 -0.245356 1318.76 0.989481C1322.73 1.8243 1326.34 3.09392 1336.73 7.26802C1348.08 11.8073 1350.97 12.677 1357.27 13.3552C1360.25 13.6683 1360.66 13.6683 1363.44 13.4248C1367.58 13.077 1371.97 12.103 1375.98 10.6769C1376.77 10.3812 1381.57 8.50286 1386.63 6.50277C1396.28 2.65912 1399.38 1.6156 1403.56 0.798169C1409.24 -0.297532 1414.25 -0.245356 1420.21 0.989481C1424.39 1.84169 1427 2.7113 1435.16 5.9984C1447.17 10.816 1451.39 12.2769 1455.41 12.9726L1456.73 13.1987V25.8601H1163.06V26.4773H278.463V13.5137L280.165 13.2288C283.32 12.6946 288.011 11.1632 294.072 8.7058C312.089 1.42268 314.289 0.728199 321.014 0.122756C324.75 -0.197772 328.652 0.104949 333.177 1.08434C337.329 1.99251 339.612 2.79383 349.658 6.87166C360.244 11.181 361.573 11.6618 364.894 12.4987C372.574 14.4397 378.925 14.2972 386.688 12.0714C389.013 11.4125 394.036 9.52493 400.305 6.97851C410.849 2.68699 413.714 1.68979 417.99 0.852849C423.76 -0.304615 429.032 -0.251194 434.886 1.01311C438.871 1.86786 442.483 3.16778 452.903 7.44149C464.277 12.0892 467.183 12.9795 473.493 13.674C476.482 13.9945 476.897 13.9945 479.679 13.7452C483.83 13.3891 488.231 12.3919 492.257 10.9317C493.046 10.629 497.862 8.7058 502.926 6.65798C512.599 2.7226 515.713 1.65417 519.905 0.817235C525.593 -0.304615 530.616 -0.251194 536.594 1.01311C540.787 1.88566 543.402 2.77602 551.58 6.14157C563.619 11.0742 567.473 12.5165 571.5 13.2288L573.209 13.5137L574.911 13.2288C578.066 12.6946 582.757 11.1632 588.818 8.7058C606.835 1.42268 609.035 0.728199 615.76 0.122756C619.496 -0.197772 623.399 0.104949 627.924 1.08434C632.075 1.99251 634.358 2.79383 644.404 6.87166C654.99 11.181 656.319 11.6618 659.64 12.4987C667.32 14.4397 673.672 14.2972 681.435 12.0714C683.759 11.4125 688.782 9.52493 695.051 6.97851C705.595 2.68699 708.46 1.68979 712.736 0.852849C718.506 -0.304615 723.778 -0.251194 729.632 1.01311C733.617 1.86786 737.229 3.16778 747.649 7.44149C759.023 12.0892 761.929 12.9795 768.239 13.674C771.228 13.9945 771.644 13.9945 774.425 13.7452C778.576 13.3891 782.977 12.3919 787.004 10.9317C787.792 10.629 792.608 8.7058 797.673 6.65798C807.345 2.7226 810.459 1.65417 814.652 0.817235C820.339 -0.304615 825.362 -0.251194 831.34 1.01311C835.533 1.88566 838.148 2.77602 846.326 6.14157C858.365 11.0742 862.6 12.57 866.627 13.2822L867.78 13.4832L869.303 13.2288C872.466 12.6946 877.168 11.1632 883.244 8.7058C901.305 1.42268 903.51 0.728199 910.252 0.122756C913.997 -0.197772 917.909 0.104949 922.445 1.08434C926.606 1.99251 928.895 2.79383 938.966 6.87166C949.577 11.181 950.909 11.6618 954.238 12.4987C961.937 14.4397 968.304 14.2972 976.086 12.0714C978.416 11.4125 983.452 9.52493 989.735 6.97851C1000.31 2.68699 1003.18 1.68979 1007.46 0.852849C1013.25 -0.304615 1018.53 -0.251194 1024.4 1.01311C1028.4 1.86786 1032.02 3.16778 1042.46 7.44149C1053.86 12.0892 1056.78 12.9795 1063.1 13.674C1066.1 13.9945 1066.51 13.9945 1069.3 13.7452C1073.46 13.3891 1077.87 12.3919 1081.91 10.9317C1082.7 10.629 1087.53 8.7058 1092.61 6.65798C1102.3 2.7226 1105.42 1.65417 1109.63 0.817235C1115.33 -0.304615 1120.36 -0.251194 1126.36 1.01311C1130.56 1.88566 1133.18 2.77602 1141.38 6.14157C1153.45 11.0742 1157.69 12.57 1161.73 13.2822L1162.73 13.4567V13.1987L1164.43 12.9204C1167.58 12.3987 1172.26 10.903 1178.3 8.50286Z" fill="#4B4A7F"/>
<path d="M25.6548 0.122756C18.9132 0.728199 16.7077 1.42268 -1.35297 8.7058C-7.42868 11.1632 -12.1311 12.6946 -15.2938 13.2288L-17 13.5137V26.4773H278.463V13.5137L277.131 13.2822C273.094 12.57 268.85 11.0742 256.781 6.14157C248.583 2.77602 245.962 1.88566 241.759 1.01311C235.766 -0.251194 230.731 -0.304615 225.03 0.817235C220.826 1.65417 217.705 2.7226 208.009 6.65798C202.932 8.7058 198.105 10.629 197.314 10.9317C193.278 12.3919 188.867 13.3891 184.705 13.7452C181.917 13.9945 181.501 13.9945 178.505 13.674C172.179 12.9795 169.266 12.0892 157.864 7.44149C147.419 3.16778 143.798 1.86786 139.803 1.01311C133.936 -0.251194 128.65 -0.304615 122.866 0.852849C118.58 1.68979 115.708 2.68699 105.138 6.97851C98.8546 9.52493 93.8192 11.4125 91.4888 12.0714C83.7069 14.2972 77.3399 14.4397 69.6412 12.4987C66.3121 11.6618 64.9804 11.181 54.3687 6.87166C44.2981 2.79383 42.0093 1.99251 37.8478 1.08434C33.3118 0.104949 29.4001 -0.197772 25.6548 0.122756Z" fill="#4B4A7F"/>
</svg>
